HIERARCHY
ROOT pelvis
{
  OFFSET 0 100 0
  CHANNELS 6 Xposition Yposition Zposition Zrotation Xrotation Yrotation
  JOINT pelvis_right_femur
  {
    OFFSET -10.78128 -3.44521 -0.5502486
    CHANNELS 3 Zrotation Xrotation Yrotation
    JOINT right_femur_tibia
    {
      OFFSET -0.8047443 -44.0398 -0.1307829
      CHANNELS 3 Zrotation Xrotation Yrotation
      JOINT right_tibia_foot
      {
        OFFSET 3.006224 -47.83518 -5
        CHANNELS 3 Zrotation Xrotation Yrotation
        End Site
        {
          OFFSET 0 -5 15
        }
      }
    }
  }
  JOINT pelvis_left_femur
  {
    OFFSET 10.78128 -3.44521 -0.5502486
    CHANNELS 3 Zrotation Xrotation Yrotation
    JOINT left_femur_tibia
    {
      OFFSET 0.8047443 -44.0398 -0.1307829
      CHANNELS 3 Zrotation Xrotation Yrotation
      JOINT left_tibia_foot
      {
        OFFSET -4.370144 -48.10324 -4.275266
        CHANNELS 3 Zrotation Xrotation Yrotation
        End Site
        {
          OFFSET 0 -5 15
        }
      }
    }
  }
  JOINT pelvis_spine1
  {
    OFFSET 0 6.468898 -3.129235
    CHANNELS 3 Zrotation Xrotation Yrotation
    JOINT spine1
    {
      OFFSET 0 23.15396 4.99043
      CHANNELS 3 Zrotation Xrotation Yrotation
      JOINT spine2
      {
        OFFSET 0 20.79997 -5.064912
        CHANNELS 3 Zrotation Xrotation Yrotation
        JOINT neck
        {
          OFFSET 0 14.38658 9.616178
          CHANNELS 3 Zrotation Xrotation Yrotation
          End Site
          {
            OFFSET 0 20 0
          }
        }
      }
      JOINT right_manubrium
      {
        OFFSET -5.722621 16.35077 3.967754
        CHANNELS 3 Zrotation Xrotation Yrotation
        JOINT right_clavicle
        {
          OFFSET -13.16364 1.694482 -4.693211
          CHANNELS 3 Zrotation Xrotation Yrotation
          JOINT right_humerus
          {
            OFFSET -28.5034 -0.3100689 -2.792744
            CHANNELS 3 Zrotation Xrotation Yrotation
            JOINT right_radius
            {
              OFFSET -25.15693 0.02248979 -1.271978
              CHANNELS 3 Zrotation Xrotation Yrotation
              End Site
              {
                OFFSET -15 0 0
              }
            }
          }
        }
      }
      JOINT left_manubrium
      {
        OFFSET 5.722621 16.35077 3.967754
        CHANNELS 3 Zrotation Xrotation Yrotation
        JOINT left_clavicle
        {
          OFFSET 13.16364 1.694482 -4.693211
          CHANNELS 3 Zrotation Xrotation Yrotation
          JOINT left_humerus
          {
            OFFSET 29.39168 -1.063119 -2.237045
            CHANNELS 3 Zrotation Xrotation Yrotation
            JOINT left_radius
            {
              OFFSET 24.59957 -0.9528479 0.9047498
              CHANNELS 3 Zrotation Xrotation Yrotation
              End Site
              {
                OFFSET 15 -0 -0
              }
            }
          }
        }
      }
    }
  }
}
MOTION
Frames: 19
Frame Time: 0.0416666666667
0 103.5113 0 0.6088745 -0.7463492 -0.0790603 3.122214 -15.85364 9.774576 -0 38.98661 -0 -6.839527 -18.85551 -4.062091 -6.612859 10.82968 -24.04052 -0 2.329518 -0 8.240977 -17.57643 26.80304 -3.845636 -4.334425 4.153567 3.1521 9.241718 -8.096398 1.092067 22.45872 6.546964 2.477328 -25.07404 9.456521 6.584092 -20.01595 11.66245 84.86639 34.07583 -18.74403 -0 0 17.10024 -7.131573 7.270202 5.075015 5.602061 -19.19047 -0.7865247 -95.88294 26.29089 23.64795 0 0 -10.80913 7.201177 18.66686 5.337075
0.2738023 102.6542 1.122556 0.3436944 -0.3679723 -0.1328872 3.622609 -17.329 9.710166 -0 38.14405 -0 -6.959442 -17.73768 -3.834875 -6.442795 10.82357 -23.62276 -0 2.612036 -0 8.072561 -17.92018 26.48291 -3.577225 -4.133584 4.196564 3.075779 9.294497 -8.094385 1.183753 22.22247 6.570966 2.600891 -25.30641 9.511565 6.472918 -19.99919 11.60049 85.02403 34.1075 -18.84287 -0 0 16.99199 -7.065807 7.343093 4.948917 5.853068 -19.47424 -0.732226 -95.63197 26.0577 23.43645 0 0 -11.50183 7.861028 18.47605 4.844016
0.7694458 101.6432 5.197757 -0.363438 -1.53052 0.32174 2.808138 -21.78393 1.062901 -0 33.22962 -0 -10.05252 3.99147 1.111992 -4.895178 8.825714 -14.87927 -0 8.46815 -0 0.3568299 -20.53863 17.5665 -2.471646 -1.861857 3.2681 1.346507 11.41225 -7.681053 0.8949312 20.41363 7.277793 5.37626 -22.84964 6.94769 5.942398 -18.60239 11.76343 85.04471 31.69472 -16.9581 -0 0 15.91884 -17.6398 10.78147 8.064647 9.154399 -23.50235 -2.092654 -90.65839 16.18761 17.44395 0 0 -12.99337 13.40027 15.91402 -3.719078
1.237751 100.3483 9.833803 -0.4770676 -0.9216866 0.7975968 3.109557 -25.8321 -0.701986 -0 24.36073 -0 -9.729249 5.300983 1.561593 -4.902452 10.56189 -13.32765 -0 9.359087 -0 -0.1744604 -21.56593 15.84426 -2.224222 -1.421468 3.224935 1.692094 11.48449 -7.909856 0.806873 20.08244 7.387507 5.368541 -23.29477 6.881343 4.964704 -18.44933 11.86606 86.42785 30.42805 -18.55538 -0 0 14.15879 -17.83388 10.58329 8.093724 9.594023 -24.603 -2.70065 -89.17513 15.41048 15.54783 0 0 -17.44314 13.91114 14.54492 -4.44898
1.683434 98.62244 14.94502 -0.221653 0.8078287 1.267209 3.507003 -31.29382 -2.08625 -0 12.9197 -0 -8.130367 4.152422 1.621908 -5.439485 12.73478 -12.53409 -0 10.80378 -0 0.3415391 -22.81472 14.67567 -2.560095 -1.184872 3.440899 2.30764 10.9323 -8.207706 0.7133706 19.46044 7.612605 5.538528 -23.42914 6.90454 4.997267 -17.60369 11.88895 86.66717 31.68534 -20.18152 -0 0 12.73526 -16.96377 11.08197 7.27462 10.4594 -25.28852 -2.677154 -87.53633 14.08918 12.93664 0 0 -22.58182 15.02553 12.88095 -6.487866
2.18948 96.62472 20.19026 0.09023748 0.8513239 1.724918 3.114188 -31.92446 -3.269943 -0 10.66375 -0 -7.83711 4.309911 1.991197 -5.7126 13.07515 -12.12933 -0 11.09148 -0 0.6706354 -22.80674 14.31412 -2.764444 -1.104407 3.457189 2.26904 10.87418 -8.142068 0.5827716 19.40723 7.737798 5.788684 -22.93504 6.640831 5.049808 -17.30703 11.90795 86.51656 32.11178 -20.17857 -0 0 12.53202 -17.44392 11.24566 7.202008 10.81376 -25.50521 -2.917967 -86.83995 12.71968 11.74765 0 0 -23.72753 15.89899 12.20681 -8.26254
2.762578 94.48108 25.55768 0.3457919 -0.4360175 2.174975 2.135136 -30.08947 -5.174162 -0 10.76588 -0 -8.741433 6.056534 2.700972 -5.676066 12.97016 -11.28927 -0 10.66188 -0 0.1505876 -22.4325 13.68892 -2.639629 -0.9976965 3.228482 1.933077 11.28777 -7.920004 0.404936 19.8729 7.801241 5.908839 -22.41904 6.254651 4.208268 -17.53859 12.00121 87.25417 30.23578 -19.99087 -0 0 11.94689 -19.27323 10.78079 7.911305 10.72893 -26.05886 -3.835695 -86.38777 11.64248 11.03979 0 0 -23.72729 16.22192 12.24548 -9.232206
3.373772 92.25652 31.14344 0.6193295 -1.152755 2.614937 1.461901 -29.53955 -6.789569 -0 8.330931 -0 -9.067554 6.948387 3.076428 -5.816754 13.47882 -10.51324 -0 10.54417 -0 -0.1092307 -22.37437 13.09204 -2.584653 -0.9088692 3.116749 1.816142 11.45463 -7.789043 0.2924894 20.23772 7.841923 5.86343 -22.18042 6.080206 3.254492 -17.63213 12.03542 88.28268 28.55553 -20.42188 -0 0 10.9016 -20.31989 10.23724 8.308949 10.61434 -26.60296 -4.638732 -85.71584 11.15225 10.05508 0 0 -25.13832 16.19191 12.00594 -9.594409
4.027367 89.92653 36.95293 0.9632727 -1.224885 3.044095 1.005348 -30.03983 -8.170747 -0 5.026906 -0 -8.863531 7.078532 3.313146 -6.123706 14.15519 -9.924051 -0 10.71219 -0 -0.1074888 -22.50395 12.52294 -2.690322 -0.91794 3.150394 1.780665 11.39664 -7.752148 0.1597518 20.32423 7.903263 5.970157 -21.79986 5.818236 2.824842 -17.46253 12.03379 88.77435 28.04357 -20.94489 -0 0 10.26478 -20.82333 9.99218 8.271802 10.82691 -27.06829 -5.077214 -85.02323 10.34481 8.880618 0 0 -27.01352 16.40947 11.51897 -10.45297
4.726533 87.52131 42.88405 1.251974 -1.475542 3.459365 0.6740143 -29.93894 -9.195576 -0 3.632927 -0 -8.901311 7.178988 3.535802 -6.335266 14.51864 -9.546685 -0 10.98312 -0 0.01519041 -22.33886 12.26683 -2.71962 -0.9721029 3.157019 1.636275 11.39318 -7.670915 0.04809112 20.47904 7.943337 6.104009 -21.32861 5.551605 2.516639 -17.35726 12.00361 89.11077 27.71593 -21.17514 -0 0 9.940444 -21.30427 9.777333 8.189932 10.96937 -27.3947 -5.460055 -84.55887 9.590347 8.034857 0 0 -28.11897 16.74964 11.28363 -11.37146
5.44972 85.11213 48.86649 1.443292 -2.10232 3.846012 0.4611409 -29.06889 -9.903072 -0 3.651919 -0 -9.310578 7.344902 3.677011 -6.39824 14.72242 -9.284551 -0 11.37635 -0 0.1913551 -21.88359 12.32629 -2.588163 -1.041308 3.085649 1.417255 11.48866 -7.531441 0.000506849 20.85018 7.935944 6.094636 -20.9538 5.426971 1.949989 -17.41743 11.94208 89.74316 26.89727 -21.29684 -0 0 9.462333 -21.84779 9.429419 8.203593 10.82691 -27.65525 -5.965261 -84.23778 9.272116 7.494996 0 0 -28.6738 16.98339 11.44391 -11.88692
6.172696 82.75946 54.91091 1.585961 -2.766174 4.188129 0.3854068 -28.13852 -10.40946 -0 3.725258 -0 -9.765759 7.415434 3.677556 -6.427416 14.98909 -9.026187 -0 12.08577 -0 0.3884147 -21.34664 12.47199 -2.384234 -1.150715 3.012856 1.209656 11.58793 -7.404818 -0.004142957 21.27952 7.882526 5.978659 -20.66522 5.386639 1.230902 -17.51867 11.85194 90.60135 25.86097 -21.547 -0 0 8.816286 -22.28873 9.027643 8.197566 10.55599 -27.91651 -6.487347 -83.92179 9.248053 7.036624 0 0 -29.32999 17.05542 11.74379 -12.04288
6.876533 80.51226 61.0387 1.695782 -3.340217 4.474913 0.4876754 -27.34047 -10.71433 -0 3.823546 -0 -10.18513 7.389007 3.549057 -6.451275 15.27271 -8.73328 -0 13.36074 -0 0.6166317 -20.70642 12.62158 -2.137595 -1.32803 2.977888 1.011897 11.68924 -7.327591 0.005223932 21.6624 7.779982 5.83816 -20.36792 5.325405 0.5252417 -17.61004 11.74408 91.51613 24.90982 -21.92692 -0 0 8.206154 -22.58915 8.656394 8.094849 10.27148 -28.19204 -6.948707 -83.61028 9.279238 6.641772 0 0 -30.15033 17.05229 12.05243 -12.04389
7.536391 78.43797 67.25179 1.730585 -3.916593 4.690235 0.8375203 -26.46535 -10.68552 -0 4.382357 -0 -10.66963 7.332004 3.260193 -6.412483 15.45387 -8.405476 -0 15.49456 -0 0.889886 -19.82765 12.83333 -1.799161 -1.575818 2.970855 0.811813 11.85012 -7.301446 0.04432852 22.02141 7.602116 5.642119 -20.08709 5.258405 -0.2003421 -17.74308 11.62489 92.53339 23.96844 -22.39786 -0 0 7.647635 -22.7658 8.322014 7.924895 9.897191 -28.45765 -7.369213 -83.35491 9.423326 6.446678 0 0 -30.94103 16.95472 12.43426 -11.79423
8.115589 76.63548 73.55099 1.642729 -4.546574 4.806682 1.519199 -25.38399 -10.17045 -0 5.475928 -0 -11.25458 7.253667 2.72111 -6.261162 15.45093 -8.009369 -0 18.89079 -0 1.20389 -18.60998 13.12743 -1.322551 -1.900627 2.999909 0.6303614 12.11821 -7.34483 0.1425754 22.36708 7.303459 5.313631 -19.90446 5.229643 -1.031469 -17.97493 11.5017 93.7656 22.87872 -22.9975 -0 0 7.07978 -22.79082 8.028276 7.724427 9.327776 -28.69692 -7.766372 -83.18363 9.825158 6.586423 0 0 -31.65662 16.64171 12.9378 -11.0421
8.570265 75.23094 79.95452 1.400617 -5.172524 4.78853 2.628138 -24.11187 -9.02112 -0 6.855875 -0 -11.86645 7.14124 1.820898 -5.971903 15.14364 -7.440002 -0 24.1048 -0 1.528133 -16.98647 13.40964 -0.6911877 -2.326799 3.123236 0.5148474 12.54802 -7.518125 0.3104919 22.61908 6.816739 4.798075 -19.89063 5.21221 -1.990778 -18.36299 11.40245 95.25697 21.5606 -23.82002 -0 0 6.558921 -22.59308 7.79931 7.506101 8.513742 -28.92172 -8.117293 -83.12122 10.52854 7.218999 0 0 -32.39915 15.936 13.47414 -9.518927
8.857348 74.3642 86.49617 0.9892855 -5.706292 4.597142 4.259474 -22.62979 -7.06565 -0 8.157023 -0 -12.37186 6.97408 0.4415575 -5.508182 14.27151 -6.528999 -0 31.79981 -0 1.829664 -14.88349 13.51132 0.0907591 -2.874354 3.445996 0.5296614 13.23389 -7.912006 0.540016 22.62448 6.046479 4.052697 -20.11712 5.109483 -3.062946 -19.01605 11.38601 96.98146 19.93312 -24.94723 -0 0 6.297751 -22.08643 7.658247 7.289228 7.42053 -29.15491 -8.397072 -83.22538 11.49195 8.603029 0 0 -33.2726 14.61587 13.81424 -6.933286
8.948401 74.14766 93.21145 0.4398565 -6.072266 4.201746 6.424341 -20.80642 -4.18281 -0 8.821144 -0 -12.56522 6.650978 -1.506939 -4.805393 12.41765 -5.076649 -0 42.35005 -0 2.096891 -12.28949 13.22105 0.9734741 -3.522726 4.113664 0.7534239 14.28926 -8.619649 0.7998665 22.18254 4.886766 3.042211 -20.65502 4.77321 -4.215705 -20.11704 11.5397 98.81329 17.8621 -26.36869 -0 0 6.673972 -21.19531 7.612392 7.123428 6.022818 -29.41148 -8.613559 -83.58911 12.60047 11.08194 0 0 -34.32589 12.46833 13.57279 -3.04492
8.853565 74.57251 100.1021 -0.1165037 -6.277251 3.59887 8.868855 -18.38575 -0.5481591 -0 8.232188 -0 -12.21953 5.903918 -3.936719 -3.768696 9.132553 -2.979847 -0 54.85735 -0 2.387646 -9.385432 12.39606 1.811749 -4.157991 5.244794 1.227567 15.75286 -9.650501 1.014871 21.13137 3.313521 1.810938 -21.46025 4.037717 -5.349092 -21.86314 11.94321 100.4182 15.30587 -27.81158 -0 0 8.217253 -19.94265 7.667217 7.077815 4.380796 -29.6623 -8.839104 -84.30299 13.56658 14.88815 0 0 -35.39845 9.570339 12.30421 1.899627
